# xmcd
#
# Track frame offsets:
#	150
#	12863
#	33124
#	46190
#	73702
#	98959
#	118275
#
# Disc length: 2057 seconds
#
# Revision: 2
# Processed by: cddbd v1.5.2PL0 Copyright (c) Steve Scherf et al.
# Submitted via: EZCDAudioConverter 1.3.4.1
#
DISCID=55080707
DTITLE=Manal
DYEAR=1970
DGENRE=Blues
TTITLE0=Juego de tomate
TTITLE1=Porque Hoy Nací
TTITLE2=Av. Rivadavia
TTITLE3=Todo el día me pregunto
TTITLE4=Avellaneda Blues
TTITLE5=Casa con diez pinos
TTITLE6=Informe de un día
EXTD=
EXTT0=
EXTT1=
EXTT2=
EXTT3=
EXTT4=
EXTT5=
EXTT6=
PLAYORDER=
